# xmcd
#
# Track frame offsets:
#	150
#	8792
#	21405
#	32342
#	42652
#	55631
#	68091
#	77522
#	87113
#	97062
#	107512
#	116638
#	128686
#	144180
#	157414
#
# Disc length: 2232 seconds
#
# Revision: 2
# Processed by: cddbd v1.5.2PL0 Copyright (c) Steve Scherf et al.
# Submitted via: audiograbber 1.83.01
#
DISCID=bb08b60f
DTITLE=Ralph Brauner Solo - Blues Comes Callin'
DYEAR=2008
DGENRE=acoustic blues
TTITLE0=Warm Up Boogie
TTITLE1=Bye Bye Friend
TTITLE2=32/20 Blues
TTITLE3=You're My Daddy
TTITLE4=Rambling On My Mind
TTITLE5=Walking Blues
TTITLE6=Out Of Your Line
TTITLE7=Last Time
TTITLE8=Janis
TTITLE9=Got My Mojo Working
TTITLE10=Brown Eyes Blue
TTITLE11=Crossroad Blues
TTITLE12=Mississippi Blues
TTITLE13=For You
TTITLE14=Do What You Do
EXTD=Recorded 2008 - Label: PORTABILE MUSIC TRIER (PMT) - www.portabile.de - Ca
EXTD=talogue No. pmt-07-01
EXTT0=
EXTT1=
EXTT2=
EXTT3=
EXTT4=
EXTT5=
EXTT6=
EXTT7=
EXTT8=
EXTT9=
EXTT10=
EXTT11=
EXTT12=
EXTT13=
EXTT14=
PLAYORDER=
